<svg xmlns="http://www.w3.org/2000/svg" viewBox="0 0 300 300"><defs><style>.cls-1{fill:#dd4b39;}.cls-2{fill:none;}.cls-3{fill:#fff;}</style></defs><title>do</title><g id="Layer_2" data-name="Layer 2"><rect class="cls-1" width="300" height="300" rx="17.25" ry="17.25"/></g><g id="Layer_1" data-name="Layer 1"><line class="cls-2" x1="132.39" y1="165.18" x2="132.39" y2="165.18"/><path class="cls-3" d="M132.39,165.18c-33.35.33-48.24,5.5-48.24,5.5-35.93,4.64-40.68.25-40.68.25-10.27-2.62-6.16-27.24-6.16-27.24l6.82-44.83c1.35-5.16,10.13-6,13.64-6.07l-.59-.57h92l93.33-.58-.6.58c3.51.09,12.3.83,13.69,6l7.1,44.78s4.26,24.6-6,27.28c0,0-4.73,4.41-40.68,0,0,0-15.3-5.2-49.52-5.2v-9.93l0-.35.89-.07,3,.06a5.28,5.28,0,0,0,3-.91,4.15,4.15,0,0,0,.16-1.21V138.4s.06-1.53-2.66-1.59l-21.24-.06-20.51.18c-2.72.08-2.65,1.61-2.65,1.61l.09,14.25a4.16,4.16,0,0,0,.17,1.22,5.27,5.27,0,0,0,3,.89l2.68-.07Z"/><path class="cls-3" d="M134.12,141.89h30.59a0,0,0,0,1,0,0v28.54a15.3,15.3,0,0,1-15.3,15.3h0a15.3,15.3,0,0,1-15.3-15.3V141.89a0,0,0,0,1,0,0Z"/><circle class="cls-1" cx="149.57" cy="168.03" r="8.36"/><circle class="cls-3" cx="152.18" cy="167.99" r="3.39"/><path class="cls-3" d="M259.8,170.51a6.58,6.58,0,0,1-3.15,1.89s-4.73,4.41-40.68,0a29.62,29.62,0,0,0-4.52-1.12c-.48-.08-1.43-.21-3.31-.47l-2.15-.3c-10.55-2.15-24.42-3.69-40-4.3a18.3,18.3,0,0,1,.33,3.46c0,9.65-7.48,17.46-16.72,17.46s-16.72-7.82-16.72-17.46a18.3,18.3,0,0,1,.31-3.35,252.7,252.7,0,0,0-37.49,4.19H93.89a73.22,73.22,0,0,0-9.75,2.29c-35.93,4.64-40.68.25-40.68.25a6.79,6.79,0,0,1-3.74-2.55H39v21.88a16,16,0,0,0,16,16H244.15a16,16,0,0,0,16-16Z"/></g></svg>