<svg xmlns="http://www.w3.org/2000/svg" viewBox="0 0 120.33 121.67"><defs><style>.cls-1{fill:#f39c12;}.cls-2{fill:none;}.cls-3{fill:#fff;}</style></defs><title>vang</title><g id="Layer_2" data-name="Layer 2"><rect class="cls-1" x="5" y="10.33" width="100" height="100" rx="17.25" ry="17.25"/><line class="cls-2" x1="54.26" x2="54.26" y2="121.67"/><line class="cls-2" y1="59.5" x2="120.33" y2="59.5"/></g><g id="Layer_1" data-name="Layer 1"><line class="cls-2" x1="49.22" y1="63.64" x2="49.22" y2="63.63"/><path class="cls-3" d="M44.22,53.3c-9.54.09-13.8,1.57-13.8,1.57-10.28,1.33-11.64.07-11.64.07C15.85,54.2,17,47.16,17,47.16L19,34.33c.39-1.48,2.9-1.7,3.9-1.74l-.17-.16H49l26.69-.17-.17.17c1,0,3.52.24,3.91,1.71l2,12.81s1.22,7-1.71,7.8c0,0-1.35,1.26-11.64,0,0,0-4.38-1.49-14.16-1.49V50.33l.25,0,.86,0a1.51,1.51,0,0,0,.87-.26,1.19,1.19,0,0,0,0-.35V45.64s0-.44-.76-.46l-6.08,0-5.87.05c-.78,0-.76.46-.76.46l0,4.08a1.19,1.19,0,0,0,0,.35,1.51,1.51,0,0,0,.87.25l.77,0Z" transform="translate(5 10.33)"/><path class="cls-3" d="M49.72,57h8.75a0,0,0,0,1,0,0v8.16a4.37,4.37,0,0,1-4.37,4.37h0a4.37,4.37,0,0,1-4.37-4.37V57a0,0,0,0,1,0,0Z"/><circle class="cls-1" cx="54.14" cy="64.45" r="2.39"/><circle class="cls-3" cx="54.88" cy="64.44" r="0.97"/><path class="cls-3" d="M80.67,54.83a1.88,1.88,0,0,1-.9.54s-1.35,1.26-11.64,0A8.47,8.47,0,0,0,66.84,55l-.95-.14-.61-.08A74.06,74.06,0,0,0,53.83,53.6a5.23,5.23,0,0,1,.09,1,4.79,4.79,0,1,1-9.56,0,5.23,5.23,0,0,1,.09-1,72.28,72.28,0,0,0-10.72,1.2h-.51a20.94,20.94,0,0,0-2.79.66c-10.28,1.33-11.64.07-11.64.07a1.94,1.94,0,0,1-1.07-.73H17.5v6.26a4.57,4.57,0,0,0,4.57,4.57H76.19a4.57,4.57,0,0,0,4.57-4.57Z" transform="translate(5 10.33)"/></g></svg>